<svg width="60" height="24" viewBox="0 0 60 24" fill="none" xmlns="http://www.w3.org/2000/svg">
<path d="M31.2041 7.51605L30.1716 7.68051V15.6494C30.1716 16.6511 29.9621 17.2192 29.3934 17.9967L27.9269 19.9851C27.5828 19.9702 27.2535 19.8356 27.074 19.6263L28.0766 16.8454V7.68051L26.8196 7.51605V7.3815C26.8196 7.03762 26.9094 6.69375 27.059 6.49939H31.3537L31.2041 7.51605Z" fill="#475569"/>
<path d="M41.0236 15.8139C41.0236 16.1279 40.9338 16.5017 40.7842 16.696H36.6391L36.7887 15.6794L37.9859 15.5149L37.103 12.9732L34.185 13.1527L33.3619 15.5149L34.6339 15.6794V15.8139C34.6339 16.1279 34.5441 16.5017 34.4094 16.696H31.0425L31.1772 15.6794L31.8506 15.5149L35.2474 6.49948L36.9234 6.34998L40.2006 15.5149L41.0236 15.6794V15.8139ZM35.7413 8.95144H35.6066L34.5441 12.0463H36.7887L35.7413 8.95144Z" fill="#475569"/>
<path d="M46.044 16.6959H41.45L41.5846 15.6793L42.6621 15.5148V7.68051L41.4649 7.51605V7.3815C41.4649 7.06753 41.5397 6.69375 41.6894 6.49939H46.0739C48.962 6.49939 51.1019 8.2038 51.1019 11.5528C51.1019 14.9018 48.7525 16.6959 46.044 16.6959ZM45.9243 7.66556H44.772V15.455L46.3582 15.5896C47.5853 15.2756 48.7675 14.1991 48.7675 11.5528C48.7675 8.56262 47.4805 7.66556 45.9243 7.66556Z" fill="#475569"/>
<path d="M51.55 16.696L51.6847 15.6794L52.7622 15.5149V7.68061L51.565 7.51615V7.38159C51.565 7.06762 51.6398 6.69385 51.7895 6.49948H57.2215L59.122 6.34998V9.22056C58.8825 9.37007 58.4486 9.44482 58.1194 9.44482H57.9547L57.5208 7.68061H54.8721V10.9549H58.0296C58.0745 11.1492 58.1044 11.3884 58.1044 11.5978C58.1044 11.8071 58.0745 12.0313 58.0296 12.2257L56.7426 12.121H54.8721V15.5897L57.7303 15.4401L58.1642 13.6759H58.3288C58.6581 13.6759 59.092 13.7656 59.3315 13.9152V16.696H51.55Z" fill="#475569"/>
<path d="M0.000936179 13.025C0.161802 13.025 0.282451 13.0652 0.443316 13.0652C1.36829 13.1456 2.21377 13.4268 3.05832 13.8286C4.62769 14.6323 5.79397 15.7984 6.59923 17.3664C7.04161 18.2102 7.28291 19.1353 7.36334 20.0996C7.40356 20.3407 7.40356 20.5818 7.40356 20.8229V23.9187C7.40356 23.999 7.36334 23.999 7.28291 23.999C6.27657 23.9187 5.31137 23.6776 4.42568 23.2356C2.89652 22.4721 1.73024 21.3462 0.924977 19.8585C0.482597 19.0549 0.241299 18.2102 0.12065 17.3262C0.0804336 17.1253 0.0804335 16.9244 0.0402171 16.7235V16.6833C7.41424e-07 15.4368 0 14.2314 0 13.025H0.000936179Z" fill="#475569"/>
<path d="M16.658 8.40243V16.2816C16.658 17.9701 16.1352 19.5381 15.0886 20.9042C13.9214 22.432 12.3932 23.3964 10.5423 23.8393C10.1402 23.9196 9.77821 23.9598 9.37511 24C9.32149 24 9.29468 23.9732 9.29468 23.9196V7.7586C9.29468 5.70846 10.0186 3.89939 11.4271 2.41177C12.5139 1.28578 13.8008 0.562529 15.3299 0.200903C15.7321 0.120542 16.1745 0.0401807 16.5776 0C16.6312 0 16.658 0.0267872 16.658 0.0803614C16.658 2.85376 16.658 5.6281 16.658 8.40149V8.40243Z" fill="#475569"/>
</svg>
