<svg width="959" height="357" viewBox="0 0 959 357" fill="none" xmlns="http://www.w3.org/2000/svg">
<path fill-rule="evenodd" clip-rule="evenodd" d="M435 6V7H437L438 8H441L442 9H444L445 10H446L447 11H448L449 12H450L452 14H453L459 20V21L461 23V24L462 25V27L463 28V30L464 31V38L465 39V53L464 54V72L463 73V94L462 95V110L461 111V113L462 114L461 115V129L460 130V146L459 147V166L458 167V184L457 185V196L456 197V210L455 211V220L454 221V228L453 229V232L452 233V236L451 237V240L450 241V242L449 243V244L448 245V246L446 248V249L439 256H438L437 257H436L435 258H434L433 259H431L430 260H429V261H500L501 262H508L507 261H504L503 260H502L501 259H499L498 258H497L496 257H495L494 256H493L491 254H490L484 248V247L482 245V244L481 243V242L480 241V240L479 239V237L478 236V233L477 232V228L476 227V221L475 220V206L474 205V183L473 182V111L474 110V79L475 78V57L476 56V49L477 48L479 50V52L481 54V55L482 56V57L483 58V59L484 60V61L485 62V63L486 64V65L488 67V69L490 71V72L491 73V74L492 75V76L493 77V78L494 79V80L495 81V82L496 83V84L497 85V86L498 87V88L499 89V90L500 91V92L502 94V96L504 98V99L505 100V101L506 102V103L507 104V105L508 106V107L509 108V109L510 110V111L511 112V113L512 114V115L513 116V117L514 118V119L515 120V121L516 122V123L517 124V125L518 126V127L519 128V129L520 130V131L521 132V133L523 135V137L525 139V141L526 142V143L528 145V146L529 147V148L530 149V150L531 151V152L532 153V154L533 155V156L534 157V158L535 159V160L536 161V162L537 163V164L538 165V166L539 167V168L540 169V170L541 171V172L542 173V174L543 175V176L544 177V178L545 179V180L546 181V182L547 183V184L548 185V186L550 188V190L551 191V192L553 194V196L555 198V199L556 200V201L557 202V203L558 204V205L559 206V207L560 208V209L561 210V211L562 212V213L563 214V215L564 216V217L565 218V219L566 220V221L567 222V223L568 224V225L569 226V227L570 228V229L571 230V231L572 232V233L573 234V233L574 232V231L575 230V228L576 227V226L577 225V224L578 223V222L579 221V220L580 219V218L581 217V216L582 215V213L583 212V211L584 210V209L585 208V207L586 206V205L587 204V202L588 201V200L589 199V198L590 197V196L591 195V194L592 193V192L593 191V189L594 188V187L595 186V185L596 184V183L597 182V181L598 180V179L599 178V176L600 175V174L601 173V172L602 171V170L603 169V168L604 167V166L605 165V163L606 162V161L607 160V159L608 158V157L609 156V155L610 154V152L611 151V150L612 149V148L613 147V146L614 145V144L615 143V142L616 141V139L617 138V137L618 136V135L619 134V133L620 132V131L621 130V129L622 128V126L623 125V124L624 123V122L625 121V120L626 119V118L627 117V115L628 114V113L629 112V111L630 110V109L631 108V106L632 105V104L633 103V102L634 101V100L635 99V98L636 97V96L637 95V93L638 92V91L639 90V89L640 88V87L641 86V85L642 84V83L643 82V81L644 80V78L645 77V76L646 75V74L647 73V72L648 71V70L649 69V68L650 67V66L651 65V64L652 63V62L653 61V60L654 59V58L655 57V56L656 55V54L657 53V52L658 51V49L659 48V47L660 46V45L661 44H662L663 45V49L664 50V63L665 64V73L666 74V83L667 84V94L668 95V106L669 107V118L670 119V129L671 130V141L672 142V155L673 156V168L674 169V178L675 179V192L676 193V206L677 207V236L676 237V241L675 242V244L674 245V247L672 249V250L665 257H664L663 258H662L661 259H660L659 260H657L656 261H653L652 262H649L650 263H662L663 262H673L674 263H679L680 262H702L703 263H705L706 262H753L754 263H761V262H759L758 261H756L755 260H753L752 259H751L750 258H749L748 257H747L744 254H743L739 250V249L737 247V246L736 245V244L735 243V241L734 240V238L733 237V234L732 233V229L731 228V223L730 222V215L729 214V205L728 204V195L727 194V185L726 184V173L725 172V160L724 159V149L723 148V135L722 134V123L721 122V109L720 108V97L719 96V83L718 82V68L717 67V33L718 32V27L719 26V25L720 24V22L722 20V19L729 12H730L731 11H732L733 10H734L735 9H737L738 8H741L742 7H743H665L664 8V10L663 11V12L662 13V14L661 15V16L660 17V18L659 19V21L658 22V23L657 24V25L656 26V27L655 28V29L654 30V32L653 33V34L652 35V36L651 37V38L650 39V40L649 41V42L648 43V45L647 46V47L646 48V49L645 50V51L644 52V53L643 54V56L642 57V58L641 59V60L640 61V62L639 63V64L638 65V66L637 67V68L636 69V71L635 72V73L634 74V75L633 76V77L632 78V79L631 80V81L630 82V83L629 84V86L628 87V88L627 89V90L626 91V92L625 93V94L624 95V96L623 97V98L622 99V101L621 102V103L620 104V105L619 106V107L618 108V109L617 110V112L616 113V114L615 115V116L614 117V118L613 119V120L612 121V122L611 123V124L610 125V127L609 128V129L608 130V131L607 132V133L606 134V135L605 136V137L604 138V139L603 140V141L602 142V143L601 144V146L600 147V148L599 149V150L598 151V152L597 153V154L596 155V156L595 157H594L593 156V155L592 154V153L591 152V151L589 149V148L588 147V146L587 145V144L586 143V142L585 141V140L584 139V138L583 137V136L582 135V134L581 133V132L580 131V130L579 129V128L578 127V126L577 125V124L576 123V122L575 121V120L574 119V118L573 117V116L572 115V114L571 113V112L570 111V110L569 109V108L568 107V106L567 105V104L566 103V102L565 101V100L564 99V98L562 96V94L561 93V92L559 90V89L558 88V87L557 86V85L556 84V83L555 82V81L554 80V79L553 78V77L552 76V75L551 74V73L550 72V71L549 70V69L548 68V67L547 66V65L546 64V63L545 62V61L544 60V59L543 58V57L542 56V55L541 54V53L540 52V51L539 50V49L538 48V47L537 46V45L536 44V43L535 42V41L534 40V39L533 38V37L532 36V35L531 34V33L530 32V31L529 30V29L528 28V27L526 25V24L525 23V22L524 21V20L523 19V18L522 17V16L521 15V14L520 13V12L519 11V10L518 9V8L517 7H438L437 6H435ZM835 0L834 1H825L824 2H819L818 3H814L813 4H810L809 5H806L805 6H803L802 7H800L799 8H798L797 9H795L794 10H793L792 11H791L790 12H789L788 13H787L786 14H785L783 16H782L780 18H779L776 21H775L768 28V29L764 33V34L763 35V36L761 38V39L760 40V41L759 42V43L758 44V46L757 47V49L756 50V52L755 53V57L754 58V67L753 68V73L754 74V81L755 82V86L756 87V89L757 90V92L758 93V95L759 96V97L760 98V99L761 100V101L762 102V103L763 104V105L765 107V108L767 110V111L771 115V116L784 129H785L789 133H790L793 136H794L797 139H798L800 141H801L803 143H804L806 145H807L808 146H809L811 148H812L814 150H815L816 151H817L818 152H819L821 154H822L823 155H824L826 157H827L828 158H829L830 159H831L832 160H833L835 162H836L837 163H838L840 165H841L842 166H843L845 168H846L847 169H848L850 171H851L852 172H853L855 174H856L858 176H859L861 178H862L864 180H865L868 183H869L872 186H873L887 200V201L890 204V205L892 207V208L893 209V210L894 211V212L895 213V214L896 215V217L897 218V220L898 221V223L899 224V229L900 230V248L899 249V253L898 254V258L897 259V261L896 262V263L895 264V265L894 266V268L893 269V270L892 271V272L891 273V274L890 275V276L888 278V279L886 281V282L884 284V285L869 300H868L864 304H863L861 306H860L858 308H857L856 309H855L853 311H852L851 312H850L849 313H848L847 314H845L844 315H843L842 316H841L840 317H838L837 318H835L834 319H833L832 320H830L829 321H827L826 322H823L822 323H819L818 324H815L814 325H810L809 326H804L803 327H796L795 328H786L785 329H748L747 328H736L735 327H727L726 326H721L720 325H715L714 324H709L708 323H703L702 322H698L697 321H693L692 320H688L687 319H683L682 318H679L678 317H674L673 316H670L669 315H666L665 314H662L661 313H658L657 312H653L652 311H649L648 310H645L644 309H641L640 308H638L637 307H634L633 306H630L629 305H626L625 304H623L622 303H619L618 302H615L614 301H612L611 300H608L607 299H605L604 298H601L600 297H597L596 296H594L593 295H590L589 294H586L585 293H582L581 292H579L578 291H575L574 290H571L570 289H567L566 288H563L562 287H559L558 286H555L554 285H551L550 284H547L546 283H543L542 282H539L538 281H534L533 280H530L529 279H525L524 278H521L520 277H516L515 276H511L510 275H506L505 274H501L500 273H495L494 272H489L488 271H483L482 270H476L475 269H469L468 268H462L461 267H453L452 266H440L439 265H424L423 264H420L419 263V262L420 261V260L421 259V257L422 256V255L423 254V252L424 251V250L425 249V247L426 246V245L427 244V242L428 241V239L429 238V237L430 236V234L431 233V232L432 231V229L433 228V226L434 225V223L435 222V220L436 219V217L437 216V215L438 214V213L439 212V210L440 209V208L441 207V203L442 202H441L439 204V205L437 207V208L436 209V210L434 212V213L430 217V218L426 222V223L415 234H414L410 238H409L407 240H406L404 242H403L402 243H401L400 244H399L398 245H397L396 246H395L394 247H392L391 248H390L389 249H386L385 250H382L381 251H376L375 252H353L352 251H349L348 250H346L345 249H344L342 247V246L341 245V244L340 243V238L339 237V226L338 225V42L339 41V33L340 32V28L341 27V25L342 24V23L343 22V21L345 19V18L350 13H351L354 10H355L356 9H358L359 8H362L363 7H365V6H362L361 7H261L260 6H258V7H261L262 8H264L265 9H267L268 10H269L270 11H271L273 13H274L279 18V19L280 20V21L282 23V25L283 26V28L284 29V32L285 33V40L286 41V227L285 228V235L284 236V239L283 240V242L282 243V245L281 246V247L279 249V250L273 256H272L270 258H269L268 259H267L266 260H265L264 261H262L261 262H258L257 263H280L281 262H355L356 263H370L371 264H381L382 265H391L392 266H399L400 267H405L406 268H412L413 269H417L418 270H422L423 271H426L427 272H431L432 273H436L437 274H440L441 275H444L445 276H448L449 277H452L453 278H456L457 279H459L460 280H463L464 281H466L467 282H470L471 283H473L474 284H477L478 285H480L481 286H483L484 287H486L487 288H489L490 289H493L494 290H497L498 291H499L500 292H502L503 293H505L506 294H508L509 295H511L512 296H514L515 297H517L518 298H520L521 299H523L524 300H525L526 301H528L529 302H531L532 303H534L535 304H537L538 305H539L540 306H542L543 307H545L546 308H548L549 309H551L552 310H554L555 311H556L557 312H559L560 313H562L563 314H565L566 315H567L568 316H570L571 317H573L574 318H575L576 319H578L579 320H581L582 321H584L585 322H587L588 323H589L590 324H592L593 325H595L596 326H598L599 327H602L603 328H605L606 329H607L608 330H610L611 331H613L614 332H616L617 333H619L620 334H622L623 335H625L626 336H629L630 337H632L633 338H635L636 339H638L639 340H641L642 341H645L646 342H649L650 343H652L653 344H656L657 345H660L661 346H664L665 347H668L669 348H671L672 349H676L677 350H680L681 351H686L687 352H691L692 353H697L698 354H704L705 355H711L712 356H723L724 357H770L771 356H782L783 355H788L789 354H796L797 353H801L802 352H806L807 351H811L812 350H815L816 349H819L820 348H822L823 347H826L827 346H829L830 345H832L833 344H835L836 343H838L839 342H842L843 341H844L845 340H847L848 339H850L851 338H852L853 337H855L856 336H857L858 335H860L861 334H862L863 333H864L865 332H866L867 331H868L869 330H870L871 329H872L873 328H874L875 327H876L877 326H878L879 325H880L881 324H882L884 322H885L886 321H887L888 320H889L891 318H892L893 317H894L896 315H897L899 313H900L902 311H903L905 309H906L909 306H910L914 302H915L921 296H922L933 285V284L939 278V277L941 275V274L943 272V271L945 269V268L946 267V266L947 265V264L949 262V261L950 260V259L951 258V256L952 255V254L953 253V251L954 250V248L955 247V245L956 244V241L957 240V235L958 234V227L959 226V215L958 214V207L957 206V202L956 201V198L955 197V194L954 193V192L953 191V189L952 188V187L951 186V185L950 184V183L949 182V181L948 180V179L946 177V176L944 174V173L940 169V168L921 149H920L917 146H916L913 143H912L909 140H908L906 138H905L903 136H902L900 134H899L897 132H896L895 131H894L892 129H891L890 128H889L887 126H886L885 125H884L882 123H881L880 122H879L878 121H877L876 120H875L873 118H872L871 117H870L869 116H868L867 115H866L865 114H864L863 113H862L861 112H860L859 111H858L856 109H855L854 108H853L852 107H851L850 106H849L848 105H847L845 103H844L843 102H842L840 100H839L838 99H837L835 97H834L833 96H832L830 94H829L827 92H826L824 90H823L820 87H819L814 82H813L806 75V74L802 70V69L800 67V66L799 65V64L798 63V62L797 61V60L796 59V57L795 56V52L794 51V40L795 39V36L796 35V33L797 32V31L798 30V29L800 27V26L807 19H808L810 17H811L813 15H814L815 14H817L818 13H819L820 12H822L823 11H826L827 10H831L832 9H839L840 8H848L849 9H857L858 10H863L864 11H866L867 12H869L870 13H872L873 14H875L876 15H877L878 16H879L880 17H881L882 18H883L884 19H885L887 21H888L892 25H893L907 39V40L910 43V44L912 46V47L914 49V50L916 52V53L917 54V55L918 56V57L919 58V59L920 60V61L921 62V64L922 65V66L923 67V68L924 69V71L925 72V73L926 74V76L927 77V79L928 80V71L927 70V58L926 57V46L925 45V35L924 34V24L923 23V15L922 14H921L920 13H918L917 12H914L913 11H911L910 10H908L907 9H904L903 8H900L899 7H896L895 6H892L891 5H887L886 4H882L881 3H875L874 2H867L866 1H857L856 0H835ZM145 0L144 1H134L133 2H126L125 3H119L118 4H114L113 5H110L109 6H106L105 7H102L101 8H99L98 9H96L95 10H93L92 11H90L89 12H87L86 13H84L83 14H82L81 15H80L79 16H78L77 17H76L75 18H74L73 19H72L71 20H70L69 21H68L67 22H66L64 24H63L62 25H61L59 27H58L56 29H55L52 32H51L48 35H47L40 42H39L36 45V46L28 54V55L24 59V60L22 62V63L20 65V66L19 67V68L17 70V71L16 72V73L15 74V75L14 76V77L13 78V79L12 80V81L11 82V83L10 84V86L9 87V88L8 89V91L7 92V94L6 95V97L5 98V101L4 102V105L3 106V111L2 112V116L1 117V126L0 127V148L1 149V158L2 159V164L3 165V169L4 170V174L5 175V177L6 178V181L7 182V183L8 184V186L9 187V189L10 190V191L11 192V193L12 194V196L13 197V198L14 199V200L15 201V202L17 204V205L18 206V207L20 209V210L22 212V213L24 215V216L27 219V220L30 223V224L42 236H43L47 240H48L51 243H52L55 246H56L58 248H59L60 249H61L63 251H64L65 252H66L67 253H68L69 254H70L71 255H72L73 256H74L75 257H76L77 258H79L80 259H82L83 260H84L85 261H87L88 262H90L91 263H94L95 264H97L98 265H102L103 266H106L107 267H112L113 268H120L121 269H133L134 270H150L151 269H163L164 268H170L171 267H175L176 266H180L181 265H185L186 264H188L189 263H192L193 262H195L196 261H198L199 260H201L202 259H203L204 258H205L206 257H208L209 256H210L212 254H213L214 253H215L216 252H217L218 251H219L220 250H221L223 248H224L226 246H227L229 244H230L234 240H235L248 227V226L252 222V221L253 220V219L256 216V215L258 213V212L259 211V210L260 209H259L257 207V206L255 208V209L251 213V214L248 217H247L237 227H236L232 231H231L229 233H228L226 235H225L223 237H222L221 238H220L218 240H217L216 241H215L214 242H213L212 243H211L210 244H208L207 245H206L205 246H203L202 247H200L199 248H198L197 249H194L193 250H190L189 251H185L184 252H179L178 253H155L154 252H147L146 251H142L141 250H138L137 249H135L134 248H133L132 247H130L129 246H127L126 245H125L124 244H123L122 243H121L120 242H119L117 240H116L115 239H114L112 237H111L109 235H108L104 231H103L89 217V216L85 212V211L83 209V208L81 206V205L79 203V202L78 201V200L77 199V198L76 197V196L75 195V194L74 193V192L73 191V190L72 189V188L71 187V185L70 184V183L69 182V180L68 179V177L67 176V173L66 172V170L65 169V166L64 165V161L63 160V155L62 154V147L61 146V112L62 111V105L63 104V98L64 97V94L65 93V90L66 89V86L67 85V83L68 82V80L69 79V77L70 76V75L71 74V72L72 71V70L73 69V68L74 67V66L75 65V64L76 63V62L77 61V60L78 59V58L79 57V56L81 54V53L83 51V50L86 47V46L90 42V41L99 32H100L106 26H107L109 24H110L112 22H113L114 21H115L117 19H118L119 18H120L121 17H122L123 16H125L126 15H127L128 14H130L131 13H133L134 12H137L138 11H141L142 10H147L148 9H172L173 10H179L180 11H183L184 12H186L187 13H189L190 14H192L193 15H194L195 16H196L197 17H198L199 18H200L201 19H202L203 20H204L206 22H207L211 26H212L223 37V38L227 42V43L229 45V46L231 48V49L233 51V52L234 53V54L235 55V56L236 57V58L237 59V60L238 61V62L239 63V64L240 65V66L241 67V69L242 70V71L243 72V74L244 75V77L245 78V80H246V60L245 59V38L244 37V15L243 14V12L242 11H240L239 10H236L235 9H232L231 8H228L227 7H224L223 6H219L218 5H215L214 4H209L208 3H204L203 2H195L194 1H185L184 0H145Z" fill="black"/>
</svg>
